<?xml version="1.0" encoding="utf-8" ?>
<svg xmlns="http://www.w3.org/2000/svg" xmlns:xlink="http://www.w3.org/1999/xlink" width="1178" height="1178">
	<path fill="#E3E0D3" transform="scale(1.15039 1.15039)" d="M265.847 624.488L266.513 624.493C269.289 624.533 271.886 624.798 273.841 627.004C274.749 628.029 275.212 629.268 275.07 630.641C274.807 633.202 273.011 634.816 271.144 636.361Q270.253 636.459 269.358 636.504C267.087 636.634 265.001 636.276 263.373 634.538C262.407 633.505 261.942 632.242 261.979 630.839C262.055 627.986 263.865 626.286 265.847 624.488Z"/>
	<path fill="#E3E0D3" transform="scale(1.15039 1.15039)" d="M244.321 579.738C245.801 580.035 246.71 580.198 247.847 581.289C248.564 583.1 247.723 584.825 247.494 586.67C246.212 596.972 254.797 602.272 260.166 609.365C261.283 610.84 261.348 611.599 261.099 613.398C260.128 614.765 259.51 615.032 258.017 615.637C253.973 613.575 250.347 611.076 247.068 607.921C242.538 603.561 238.62 597.76 238.668 591.251C238.704 586.3 241.062 583.115 244.321 579.738Z"/>
	<path fill="#E3E0D3" transform="scale(1.15039 1.15039)" d="M641.171 873.151C642.607 873.237 644.377 873.205 645.716 873.773C648.675 875.028 649.027 878.485 650.869 880.854C653.111 883.734 657.887 886.384 658.991 889.832C660.002 892.991 658.341 895.945 657.025 898.726C657.722 899.806 658.431 900.891 659.061 902.012C660.288 904.198 660.643 906.564 659.829 908.968C658.102 914.071 651.22 915.648 646.825 917.678C644.367 918.814 642.055 920.22 639.574 921.349C637.542 921.172 635.684 920.726 633.712 920.216C632.41 919.399 631.064 918.593 630.033 917.435C627.264 914.327 627.658 910.65 627.871 906.799Q624.406 906.427 620.957 905.922C619.134 904.576 616.703 902.612 616.071 900.349C615.114 896.924 618.328 893.031 619.895 890.155C618.761 887.904 617.17 885.107 618.056 882.489C619.017 879.651 621.476 878.663 623.978 877.481C626.861 878.046 629.111 878.836 631.696 880.207L632.119 879.564C634.674 875.707 636.531 874.073 641.171 873.151ZM640.535 879.761C638.811 882.912 637.192 886.307 634.964 889.132C631.362 887.679 628.108 885.592 624.551 884.091C625.854 886.908 627.406 889.532 626.105 892.686C625.252 894.753 622.619 896.855 622.622 898.997C623.482 899.823 624.131 900.049 625.316 900.088C628.961 900.21 632.671 898.128 635.676 900.856C637.002 904.742 633.713 908.124 634.17 911.952C635.82 912.775 637.153 913.614 639.039 913.489C641.483 911.617 640.274 906.902 644.661 907.123C646.992 907.241 649.346 909.978 651.63 908.28C652.482 907.646 652.797 907.062 653.297 906.155L653.129 905.271C651.29 904.048 648.77 903.104 647.56 901.243C647.381 899.844 647.42 898.965 648.271 897.821C649.68 895.927 652.23 894.258 652.036 891.658C651.972 890.807 651.526 890.569 650.989 889.962C648.713 889.169 645.489 888.922 644.192 886.706C642.679 884.122 644.392 881.274 640.919 879.868C640.796 879.818 640.663 879.797 640.535 879.761Z"/>
	<path fill="#E3E0D3" transform="scale(1.15039 1.15039)" d="M180.519 638.045C181.277 638.132 182.03 638.223 182.766 638.439C186.667 639.579 186.861 644.171 189.562 646.638C192.18 649.029 195.962 650.006 197.702 653.296C199.286 656.291 197.413 659.936 196.492 662.931Q197.138 663.899 197.749 664.89C199.549 667.838 200.789 670.933 199.812 674.409C198.148 680.329 190.321 683.893 185.371 686.594C183.259 685.279 181.262 683.829 179.251 682.368C177.629 683.825 175.913 685.096 174.155 686.378C172.948 686.486 171.818 686.483 170.608 686.374C161.284 685.53 167.403 676.948 162.651 672.73C159.982 670.36 156.438 669.883 153.965 666.745C152.447 664.817 151.306 662.211 151.728 659.712C152.359 655.978 154.437 653.874 157.316 651.693C157.634 649.069 158.024 646.121 159.375 643.807C160.418 642.022 161.97 640.501 164.101 640.213C167.356 639.774 169.986 641.768 172.264 643.785C174.822 641.318 177.22 639.433 180.519 638.045ZM180.626 644.298C179.007 646.525 176.581 650.819 173.566 651.14C171.444 651.365 169.846 649.995 168.448 648.614C167.115 647.297 165.784 645.993 164.425 644.701C164.846 647.306 165.327 649.902 165.469 652.54C163.188 654.928 158.104 659.167 158.153 662.552C158.923 663.907 159.606 664.489 161.131 664.925C164.03 665.754 167.632 665.451 170.228 666.972C171.603 670.99 168.151 674.363 170.897 678.12C171.588 678.413 172.185 678.677 172.922 678.832C174.81 676.75 177.894 672.182 180.708 671.935C181.603 671.857 182.549 672.4 183.164 673.019C184.441 674.306 185.271 676.177 186.1 677.773C188.435 676.248 192.774 674.031 193.478 671.106C193.775 669.872 193.289 668.894 192.546 667.952C190.686 665.596 187.787 664.178 188.245 660.652C188.524 658.503 190.572 656.61 191.948 655.039C189.131 654.104 185.174 653.442 183.64 650.687C182.483 648.607 182.366 646.041 180.626 644.298Z"/>
	<path fill="#E3E0D3" transform="scale(1.15039 1.15039)" d="M274.141 159.168C278.106 158.888 282.32 159.406 286.206 160.209C293.602 161.738 301.426 164.841 305.637 171.495C309.082 176.94 309.304 183.707 307.862 189.836C306.012 197.702 301.625 203.202 294.859 207.437C288.34 207.608 281.717 206.535 275.758 203.821C269.597 201.013 263.976 196.318 261.69 189.763C259.449 183.334 260.656 174.06 263.676 167.995C265.986 163.353 269.277 160.743 274.141 159.168ZM284.194 164.975C279.382 167.599 275.372 170.967 273.777 176.464C273.128 178.699 272.952 181.317 274.105 183.425C275.239 185.5 277.466 186.68 279.697 187.226C280.896 187.52 282.151 187.588 283.378 187.645C287.675 186.244 290.521 184.44 292.533 180.239C293.978 177.223 294.358 173.146 293.146 169.987C292.283 167.738 290.328 166.046 288.085 165.237C286.838 164.787 285.495 164.905 284.194 164.975Z"/>
	<path fill="#E3E0D3" transform="scale(1.15039 1.15039)" d="M740.823 718.051C742.266 718.376 743.388 718.731 744.508 719.762C749.246 724.123 750.625 733.336 750.935 739.501C751.894 758.518 743.303 776.09 730.711 789.886C697.785 825.963 630.691 834.934 584.637 841.607C560.65 845.082 536.619 848.481 512.38 849.569C510.51 849.002 510.296 848.952 508.973 847.367C508.874 846.67 508.603 846.19 509.045 845.578C509.489 844.964 509.621 844.892 510.298 844.483C514.094 842.194 534.997 841.568 540.818 840.884C572.269 837.19 603.973 833.403 634.991 826.911C670.664 819.445 713.753 806.785 734.601 774.481C741.489 763.81 747.44 747.16 743.717 734.479C742.565 730.556 739.596 726.233 739.056 722.302C738.843 720.75 739.138 719.932 740.149 718.787C740.369 718.537 740.598 718.296 740.823 718.051Z"/>
	<path fill="#E3E0D3" transform="scale(1.15039 1.15039)" d="M796.14 796.673C802.382 796.182 808.649 796.559 814.567 798.73C821.731 801.358 827.633 806.339 830.791 813.395C833.608 819.688 834.075 827.125 831.516 833.583C828.949 840.059 824.143 843.807 817.99 846.556L817.367 846.752C810.278 848.922 803.011 848.427 796.451 844.814C790.069 841.299 785.617 835.578 783.725 828.546C781.735 821.147 781.789 810.418 785.849 803.728C788.394 799.534 791.533 797.835 796.14 796.673ZM809.822 808.662C805.488 809.501 802.166 810.334 799.51 814.204C797.004 817.856 796.62 823.417 797.503 827.651C797.782 828.989 798.158 829.925 799.264 830.786C802.221 831.483 805.045 830.913 807.981 830.333C812.768 828.234 818.124 825.463 820.129 820.274Q820.284 819.882 820.397 819.475Q820.511 819.069 820.582 818.653Q820.653 818.237 820.681 817.816Q820.709 817.396 820.694 816.974Q820.678 816.552 820.619 816.135Q820.561 815.717 820.459 815.307Q820.358 814.898 820.215 814.501Q820.072 814.104 819.889 813.724C819.075 812.004 817.544 810.821 816.155 809.579C814.052 809.232 811.948 808.83 809.822 808.662Z"/>
	<path fill="#E3E0D3" transform="scale(1.15039 1.15039)" d="M559.651 70.5305C560.695 70.7558 561.804 71.0099 562.768 71.4862C564.37 72.2786 565.515 73.9277 566.107 75.5694C569.947 86.2336 557.901 109.893 552.882 119.99C562.013 123.004 571.377 123.148 580.587 125.386C584.226 126.27 589.272 128.082 591.033 131.733C592.014 133.767 591.619 136.407 590.884 138.449C589.385 142.618 585.326 146.673 582.183 149.69C575.507 156.096 545.977 179.442 538.194 183.126C530.495 186.77 520.346 186.316 512.457 183.473C496.799 177.83 486.987 161.905 480.359 147.547C473.318 149.698 466.454 151.955 459.687 154.872C445.501 160.986 431.932 168.217 418.37 175.58C408.158 181.125 397.605 186.346 387.983 192.89C373.368 202.83 356.279 219.914 346.814 234.829C342.92 240.964 340.064 247.544 337.39 254.274C331.961 270.257 329.571 286.418 330.516 303.295C330.754 307.538 332.649 312.644 331.917 316.82C331.653 318.322 330.624 319.948 329.235 320.651C328.035 321.259 327.567 320.99 326.457 320.511C325.536 319.425 325.029 318.467 324.619 317.095C323.177 312.273 323.289 306.749 323.18 301.743C322.68 278.795 326.756 258.29 337.489 237.869C346.637 220.462 365.043 201.366 380.75 189.455C389.343 182.939 398.869 177.735 408.226 172.422C430.527 159.76 452.938 148.132 477.465 140.489C474.569 131.197 473.738 119.048 477.962 110.026C487.028 90.6639 514.791 90.0275 532.337 83.2559C541.727 79.6321 550.207 73.894 559.651 70.5305ZM558.208 77.8632C550.458 81.8815 542.91 86.7681 534.747 89.8757C519.305 95.7543 489.227 98.0463 483.497 116.424C481.712 122.152 481.53 131.718 484.541 137.078C484.886 137.692 485.318 138.108 485.863 138.54C487.278 138.725 487.847 138.579 488.994 137.674C490.741 136.294 492.161 134.141 493.613 132.442C498.604 126.604 504.715 124.216 512.185 123.648C515.455 125.237 518.56 127.135 519.843 130.739C520.692 133.125 520.679 136.002 519.579 138.304C517.55 142.549 512.293 144.853 508.019 146.195C501.847 148.134 495.267 148.33 488.854 148.583C490.942 152.126 492.998 155.657 495.399 159C502.157 168.022 509.54 176.229 521.318 177.873C531.891 179.348 538.701 173.86 546.578 167.808C557.611 159.33 576.23 146.403 583.011 134.645L582.197 134.393C572.883 131.557 549.956 130.927 544.088 124.113C543.986 123.681 543.72 123.257 543.781 122.818C544.143 120.212 549.629 111.788 551.111 108.91C553.379 104.504 563.961 81.6735 558.844 78.1083C558.657 77.9785 558.42 77.9449 558.208 77.8632ZM508.174 130.438C504.702 132.397 498.273 135.957 496.887 139.794L497.27 140.642C499.237 141.306 500.96 140.798 502.937 140.425C507.313 139.256 511.435 138.009 513.904 133.834C514.006 132.568 514.094 132.561 513.34 131.557C511.544 130.74 510.14 130.483 508.174 130.438Z"/>
	<path fill="#E3E0D3" transform="scale(1.15039 1.15039)" d="M258.906 301.696C260.868 301.537 262.799 301.597 264.76 301.739C274.845 302.473 282.638 307.355 289.087 314.922C313.214 343.231 337.91 419.126 334.49 456.568C333.87 463.355 331.683 470.745 326.114 475.116C320.8 479.287 295.429 488.181 287.73 491.392C275.277 496.586 263.197 502.527 250.827 507.891C236.791 513.977 222.438 519.449 208.118 524.826C198.389 528.479 188.596 532.338 178.538 535.001C170.879 537.029 164.201 537.518 156.373 536.362C149.953 534.658 143.982 531.905 138.703 527.856C118.49 512.354 106.512 479.799 97.1982 456.736C89.7049 438.181 81.9387 420.051 79.3509 400.03C78.1196 390.503 79.2324 377.789 85.5556 370.021C89.2241 365.514 94.4861 361.955 99.5082 359.144C118.302 348.624 139.283 341.346 159.265 333.383C182.093 324.286 205.322 314.247 228.899 307.323C238.675 304.452 248.794 302.809 258.906 301.696ZM290.826 332.155C254.578 343.61 219.92 358.66 185.041 373.673C153.694 387.166 120.155 401.491 90.2246 417.701C100.584 445.294 111.427 473.108 125.55 499.023L126.335 499.827C129.722 499.675 143.642 490.991 147.939 488.677C168.328 477.699 189.182 467.047 210.443 457.875C245.804 442.621 286.094 430.531 323.556 421.424C318.141 394.941 311.168 370.279 299.241 345.965C297.046 341.49 294.587 335.474 290.826 332.155ZM259.345 309.189Q251.616 309.739 243.995 311.132Q236.373 312.525 228.949 314.744C209.565 320.517 190.514 328.826 171.722 336.307C149.2 345.272 125.705 353.831 104.317 365.27C100.421 367.354 95.9071 369.911 93.0243 373.316C86.587 380.92 85.413 390.849 86.4247 400.403Q87.0341 406.205 88.7636 411.777Q97.4215 406.057 106.762 401.536Q158.516 375.891 212.224 354.641C237.511 344.542 262.629 335.055 288.784 327.449C282.79 319.193 276.699 311.141 265.802 309.594C263.671 309.292 261.494 309.24 259.345 309.189Z"/>
	<path fill="#E3E0D3" transform="scale(1.15039 1.15039)" d="M106.043 372.513C106.885 372.48 107.713 372.493 108.546 372.632C111.431 373.114 114.653 375.068 116.264 377.538C117.452 379.36 117.797 381.367 117.248 383.468C116.658 385.723 114.666 386.91 112.835 388.079C112.176 388.136 112.268 388.141 111.483 388.133Q110.933 388.125 110.386 388.062Q109.839 387.999 109.301 387.88Q108.763 387.762 108.24 387.59Q107.717 387.418 107.215 387.194Q106.712 386.97 106.234 386.697Q105.756 386.423 105.309 386.102Q104.861 385.782 104.448 385.418Q104.035 385.054 103.661 384.65C102.143 382.984 101.361 380.792 101.608 378.54C101.928 375.626 103.836 374.158 106.043 372.513Z"/>
	<path fill="#E3E0D3" transform="scale(1.15039 1.15039)" d="M237.551 318.469C238.447 318.461 239.362 318.449 240.253 318.555C242.727 318.851 245.115 320.196 246.489 322.293C247.638 324.046 247.929 326.182 247.47 328.21C246.703 331.598 244.451 333.52 241.581 335.205C240.588 335.289 239.615 335.387 238.622 335.257C236.348 334.958 234.326 333.886 233.008 331.979C231.712 330.104 231.512 327.658 231.993 325.479C232.751 322.041 234.673 320.269 237.551 318.469Z"/>
	<path fill="#E3E0D3" transform="scale(1.15039 1.15039)" d="M148.455 350.671C150.343 350.58 152.114 350.712 153.893 351.393C156.426 352.363 158.546 354.109 159.627 356.638C160.629 358.984 160.56 361.613 159.577 363.951C158.083 367.508 155.311 369.192 151.907 370.646C149.928 370.611 147.91 370.497 146.073 369.695Q145.617 369.5 145.183 369.261Q144.749 369.021 144.341 368.739Q143.933 368.458 143.556 368.136Q143.178 367.815 142.835 367.458Q142.491 367.101 142.185 366.711Q141.879 366.321 141.614 365.902Q141.348 365.483 141.126 365.04Q140.904 364.597 140.727 364.134Q140.556 363.68 140.431 363.211Q140.306 362.742 140.229 362.263Q140.152 361.783 140.123 361.299Q140.094 360.814 140.114 360.33Q140.134 359.845 140.202 359.364Q140.271 358.884 140.387 358.412Q140.503 357.941 140.666 357.484Q140.828 357.027 141.036 356.588C142.587 353.229 145.179 352 148.455 350.671Z"/>
	<path fill="#E3E0D3" transform="scale(1.15039 1.15039)" d="M196.83 332.55C199.712 332.393 202.428 332.467 205.058 333.809C207.417 335.012 209.434 337.091 210.143 339.689C210.762 341.96 210.41 344.181 209.167 346.17C207.279 349.194 204.439 350.23 201.149 351.095C198.7 351.142 195.801 351.075 193.52 350.117C191.136 349.115 189.002 347.137 188.132 344.668Q187.987 344.266 187.885 343.852Q187.783 343.437 187.726 343.013Q187.669 342.59 187.657 342.163Q187.645 341.736 187.679 341.31Q187.713 340.885 187.792 340.465Q187.87 340.045 187.993 339.636Q188.116 339.227 188.282 338.833Q188.448 338.44 188.655 338.066C190.418 334.896 193.523 333.548 196.83 332.55Z"/>
	<path fill="#E3E0D3" transform="scale(1.15039 1.15039)" d="M303.77 403.544C306.588 403.409 308.219 403.32 310.571 405.035C310.952 405.754 311.369 406.166 311.25 407.013C310.95 409.139 309.183 410.289 307.568 411.434C306.729 411.598 305.846 411.791 304.99 411.806C303.827 411.827 302.302 411.289 301.574 410.358C301.035 409.667 300.772 408.912 300.825 408.052C300.962 405.834 302.182 404.876 303.77 403.544Z"/>
	<path fill="#E3E0D3" transform="scale(1.15039 1.15039)" d="M246.623 425.508C246.778 425.505 246.934 425.49 247.089 425.497C248.578 425.568 249.979 426.318 250.763 427.617C251.122 428.212 251.251 428.912 251.01 429.561C249.847 432.694 244.008 434.448 241.13 435.608C240.94 435.613 240.75 435.629 240.561 435.623C238.747 435.561 237.713 435.053 236.429 433.816C236.046 432.641 235.884 432.089 236.373 430.854C237.457 428.117 243.954 426.489 246.623 425.508Z"/>
	<path fill="#E3E0D3" transform="scale(1.15039 1.15039)" d="M142.874 469.544C144.204 469.674 145.157 470.16 146.332 470.74C147.201 471.916 147.156 471.84 146.986 473.297C144.211 477.626 138.738 479.952 134.217 482.028C133.761 482.051 133.452 482.085 132.979 482.009C131.618 481.787 131.022 481.298 130.176 480.268C130.022 479.015 129.934 478.533 130.475 477.343C132.421 473.063 138.748 470.995 142.874 469.544Z"/>
	<path fill="#E3E0D3" transform="scale(1.15039 1.15039)" d="M282.122 411.119C283.318 411.591 284.058 412.282 285.035 413.092C285.514 414.306 285.755 414.569 285.095 415.813C283.136 419.503 274.37 422.177 270.624 423.476C270.207 423.429 269.872 423.418 269.472 423.234C268.541 422.808 267.266 421.32 267.011 420.284C266.71 419.065 266.989 418.292 267.686 417.279C270.093 413.781 278.159 412.098 282.122 411.119Z"/>
	<path fill="#E3E0D3" transform="scale(1.15039 1.15039)" d="M214.624 437.427C215.821 437.447 216.602 437.344 217.553 438.229C218.648 439.247 218.657 439.838 218.705 441.21C216.271 446.443 207.204 449.673 202.121 451.63C201.853 451.653 201.587 451.709 201.319 451.699C200.046 451.654 199.284 451.035 198.375 450.24C197.911 448.943 197.656 448.189 198.14 446.839C199.93 441.842 210.052 439.218 214.624 437.427Z"/>
	<path fill="#E3E0D3" transform="scale(1.15039 1.15039)" d="M180.958 452.464C181.121 452.445 181.282 452.411 181.446 452.406C183.057 452.351 184.988 452.799 186.155 453.888L186.114 455.013C183.058 460.665 173.242 464.346 167.629 466.726C167.177 466.851 166.725 467 166.249 467.016C165.27 467.049 163.786 465.955 163.263 465.147C162.62 464.155 162.534 463.312 163.071 462.229C165.374 457.589 176.299 454.318 180.958 452.464Z"/>
	<path fill="#E3E0D3" transform="scale(1.15039 1.15039)" d="M226.485 378.251C227.591 378.61 228.394 379.051 229.362 379.693C230.164 380.907 230.421 381.756 230.228 383.194C229.873 385.85 217.329 410.028 215.206 415.084C214.069 417.792 212.394 423.67 210.047 425.225C209.467 425.61 208.923 425.369 208.279 425.29C203.457 421.436 203.878 401.051 202.811 394.373C200.497 399.246 197.479 403.946 194.855 408.68C191.518 414.7 188.555 420.865 185.712 427.131C185.085 428.579 184.425 430.231 183.413 431.46C182.542 432.517 181.609 432.905 180.265 433.033C179.509 432.629 179.221 432.631 178.804 431.814C177.781 429.808 178.225 427.39 179.009 425.369C180.568 421.35 183.112 417.496 185.051 413.625C189.19 405.361 192.843 396.252 197.981 388.588C199.095 386.926 201.132 384.035 203.17 383.417C204.353 383.058 205.276 382.995 206.313 383.764C210.642 386.975 210.467 400.269 210.561 405.065C216.524 396.412 219.497 386.443 226.485 378.251Z"/>
	<path fill="#E3E0D3" transform="scale(1.15039 1.15039)" d="M808.96 209.717C817.447 209.265 826.352 210.004 833.074 215.858C837.104 219.367 839.847 225.123 840.983 230.285C842.461 236.997 842.272 244.392 842.625 251.242Q843.333 264.43 844.358 277.596C847.201 314.775 850.834 351.946 852.85 389.18C867.382 388.456 882.097 387.922 896.642 388.528C906.194 388.925 929.38 389.398 935.593 396.619C946.288 409.05 943.156 458.781 942.243 475.882Q940.598 504.057 937.808 532.142C935.91 550.787 934.147 571.898 927.614 589.621C925.263 595.998 921.584 602.411 916.401 606.906C901.554 619.78 873.645 614.725 855.662 613.725C854.355 617.625 853.185 621.504 851.009 625.03C845.524 633.921 838.076 641.545 831.636 649.734C821.84 662.192 812.764 675.54 801.95 687.15C800.168 689.063 797.626 692.023 795.05 692.687C786.31 694.943 768.799 693.803 759.137 694.051Q728.112 694.962 697.1 696.27C699.588 703.644 701.816 710.861 699.831 718.681C697.157 729.212 688.014 736.925 679.045 742.253C657.94 754.79 623.759 761.573 599.744 755.417C590.463 753.037 582.21 748.089 577.34 739.63C570.038 726.948 573.14 712.227 576.828 698.936Q513.972 704.42 450.961 707.683C392.804 711.165 336.067 713.732 280.413 732.885C259.308 740.148 239.017 749.652 219.096 759.67C207.939 765.28 196.939 771.31 185.587 776.517C209.257 770.775 234.282 767.74 258.48 765.025Q310.287 759.424 362.301 756.287C381.34 755.123 402.265 752.702 421.197 753.075C424.882 753.147 430.898 753.261 433.506 756.157C439.524 762.839 437.54 778.571 437.095 787.016C441.031 787.395 446.153 787.39 448.812 790.819C455.008 798.81 455.189 846.677 456.99 860.255C459.88 882.047 471.754 916.057 469.35 936.536C469.067 938.952 468.659 941.643 466.574 943.189C459.917 948.124 446.001 947.758 437.88 948.424C385.404 952.728 333.891 950.336 281.602 944.857C271.85 943.835 262.053 943.102 252.328 941.838C243.652 940.711 233.946 940.252 228.268 932.728C218.739 920.099 209.479 895.037 202.84 879.923Q190.385 852.076 178.843 823.839C174.393 812.983 169.588 802.029 166.251 790.764C165.317 787.61 164.658 784.452 165.139 781.157C167.748 776.641 190.534 767.389 196.133 764.828C207.411 759.436 218.326 753.25 229.463 747.567Q241.6 741.266 254.132 735.793Q266.664 730.32 279.535 725.699C330.047 707.815 382.937 703.514 435.999 700.475C483.752 697.74 531.737 696.578 579.32 691.484C591.127 666.178 601.508 658.312 623.226 642.628C626.634 640.167 629.531 636.316 633.273 634.472C635.852 633.202 638.703 633.756 641.336 634.622C660.3 640.862 680.798 669.106 690.069 686.512C706.464 686.489 722.76 685.586 739.126 684.726C750.9 684.108 763.13 683.881 774.764 681.856C780.271 680.898 785.926 679.129 789.203 674.228C790.495 672.296 790.732 670.418 790.791 668.143C790.993 660.33 789.006 652.237 787.823 644.541C786.382 635.177 785.306 625.695 783.386 616.417C774.269 616.281 765.034 617.252 755.922 617.731C743.992 618.359 732.038 618.658 720.1 619.156Q637.691 622.021 555.543 629.162Q500.779 633.89 445.919 637.328C411.499 639.392 372.265 643.668 338.462 635.419C312.42 629.063 288.222 614.249 274.217 590.9C266.493 578.022 262.78 563.531 260.38 548.842C259.86 545.659 258.764 541.079 259.902 537.976C260.414 536.582 261.082 536.067 262.318 535.332C265.626 535.365 266.402 538.714 267.206 541.467C268.791 546.896 269.467 552.643 270.84 558.143Q271.186 559.564 271.582 560.973Q271.977 562.381 272.421 563.775Q272.865 565.169 273.358 566.547Q273.85 567.924 274.39 569.284Q274.93 570.644 275.517 571.984Q276.104 573.324 276.737 574.643Q277.37 575.962 278.049 577.258Q278.727 578.554 279.451 579.825Q280.174 581.097 280.941 582.343Q281.708 583.588 282.518 584.807Q283.328 586.025 284.18 587.214Q285.031 588.404 285.924 589.563Q286.817 590.722 287.749 591.849Q288.681 592.977 289.652 594.071Q290.623 595.165 291.632 596.225Q292.64 597.285 293.685 598.309C321.975 626.014 360.687 629.156 398.048 628.83C397.729 617.527 396.819 606.177 396.129 594.886Q392.767 544.846 388.813 494.849L373.321 277.631C372.444 266.469 372.676 254.199 380.563 245.338C385.14 240.197 391.533 237.097 398.258 235.964C410.402 233.919 423.558 234.86 435.9 234.187Q473.47 232.009 510.991 229.11L808.96 209.717ZM836.889 295.218C821.544 295.947 806.223 297.402 790.886 298.351L631.497 308.966C557.169 313.975 482.953 318.605 408.789 325.763C400.018 326.609 391.211 327.101 382.45 328.033C385.191 353.397 386.362 379.001 388.315 404.444Q393.542 476.586 400.176 548.612L404.758 597.226C405.774 607.612 406.517 618.164 408.239 628.454C421.712 627.137 435.335 626.669 448.851 625.839Q476.167 624.074 503.46 621.987Q619.291 612.338 735.439 607.922Q760.948 607.069 786.434 605.703C800.863 604.917 815.265 603.838 829.717 603.553Q849.928 603.319 870.138 603.572C878.103 603.606 886.447 603.953 894.368 602.993C901.85 602.085 909.165 598.9 914.034 593.025C923.43 581.687 926.785 560.813 928.131 546.378C930.446 518.485 944.332 419.758 929.35 402.254C923.033 394.873 895.661 395.096 885.847 394.682C859.965 393.589 833.494 395.854 807.666 397.645Q784.73 399.172 761.761 400.071Q693.411 402.672 625.171 407.339C602.42 408.718 578.298 408.778 555.85 412.467C557.083 420.461 560.79 453.579 563.172 458.326C565.022 458.631 567.644 458.738 569.06 460.042C569.292 461.382 568.994 461.573 568.338 462.791C567.034 463.469 565.809 463.955 564.415 464.423C563.64 467.93 566.513 474.111 563.117 476.593C562.982 476.692 562.825 476.758 562.678 476.84C561.504 476.466 561.076 476.149 560.499 475.021C559.066 472.219 559.063 467.565 558.93 464.426C538.723 465.861 518.645 466.261 498.41 466.854C488.929 467.131 478.872 468.282 469.455 467.737C467.231 467.608 464.279 467.278 462.506 465.862C463.382 464.479 464.851 464.24 466.41 463.876C475.276 461.805 487.654 461.809 496.845 461.401C517.16 460.501 537.555 460.245 557.844 458.981C556.388 451.914 548.35 412.375 550.414 407.959C558.955 404.287 587.658 404.136 598.279 403.557Q612.419 402.712 626.548 401.709C624.621 392.648 620.263 378.783 621.602 369.945C622.375 368.879 622.552 368.686 623.739 368.134C625.375 368.797 626.067 369.91 626.714 371.528C630.008 379.763 631.164 392.201 632.714 401.155C678.591 398.054 724.416 396.507 770.329 394.286C795.097 393.088 819.818 391.07 844.587 389.911C843.962 378.576 839.837 298.736 837.199 295.336L836.889 295.218ZM170.289 786.168Q186.666 821.295 202.239 856.785L217.867 892.268C223.494 904.931 228.616 918.583 237.249 929.539C251.948 934.641 268.981 934.98 284.433 936.387C322.818 939.883 364.05 942.831 402.574 941.425C420.692 940.763 439.047 938.837 457.016 936.386C458.557 935.959 459.306 936.001 460.211 934.515C463.588 928.976 450.371 874.637 449.044 865.264C448.01 857.958 447.793 850.517 447.183 843.166C445.901 827.725 444.161 811.521 440.152 796.534C417.707 795.27 395.207 795.068 372.742 794.128Q316.889 791.363 260.999 789.505C231.068 788.717 199.77 792.688 170.289 786.168ZM527.582 249.178C509.173 251.639 490.789 254.44 472.263 255.87C456.444 257.09 437.141 257.085 421.893 259.604C418.913 260.096 414.681 260.846 412.766 263.375C408.398 269.146 410.551 281.99 411.774 288.594C412.614 293.134 414.038 297.508 418.03 300.222C420.673 302.019 424.115 302.502 427.222 302.877C435.47 303.571 443.565 303.724 451.84 303.471C466.033 303.037 531.57 298.774 540.29 292.131C542.468 290.472 543.169 286.885 543.421 284.341C544.132 277.179 542.551 257.286 538.064 251.647C536.823 250.086 535.057 248.973 533.046 248.807C531.208 248.655 529.386 248.841 527.582 249.178ZM636.952 642.135C635.102 653.014 634.314 663.383 634.508 674.419C641.869 675.214 648.125 677.318 653.048 683.218C657.706 688.797 659.372 696.291 658.584 703.417C657.829 710.244 654.823 716.931 649.422 721.324C644.121 725.635 635.825 727.793 629.085 726.826C622.71 725.911 617.342 722.329 613.68 717.074Q613.29 716.51 612.928 715.927Q612.566 715.344 612.233 714.744Q611.901 714.144 611.598 713.528Q611.295 712.912 611.024 712.282Q610.752 711.652 610.512 711.01Q610.272 710.367 610.064 709.713Q609.856 709.06 609.68 708.396Q609.505 707.733 609.363 707.062Q609.22 706.391 609.111 705.713Q609.003 705.036 608.927 704.354Q608.852 703.672 608.811 702.987Q608.769 702.302 608.762 701.616Q608.754 700.93 608.781 700.245Q608.807 699.559 608.868 698.876Q608.928 698.192 609.022 697.513Q609.116 696.833 609.244 696.159C610.61 689.127 614.931 683.115 620.809 679.117C622.754 677.794 624.951 676.776 627.1 675.839C626.743 666.711 627.255 657.745 627.856 648.64C612.158 659.093 598.694 670.334 590.019 687.481C584.433 699.764 578.527 717.396 583.625 730.786C585.803 736.505 590.125 740.642 595.691 743.068C614.34 751.198 648.689 745.202 667.168 737.635C676.201 733.936 686.125 727.557 690.164 718.263C692.675 712.485 691.79 706.337 689.378 700.699C686.665 694.358 682.544 688.492 678.739 682.767C667.327 665.596 655.91 651.29 636.952 642.135ZM416.557 760.207C389.655 761.845 362.698 762.9 335.825 764.964Q283.581 769.276 231.528 775.481C215.021 777.333 198.152 778.415 181.738 780.839C188.246 781.523 194.713 781.951 201.25 782.243C220.162 783.078 239.174 782.584 258.115 783.127Q343.116 785.759 428.144 787.363C428.156 781.746 429.105 765.498 425.619 761.372C424.449 759.987 421.391 759.977 419.735 760.006C418.674 760.024 417.613 760.114 416.557 760.207ZM775.561 239.489C770.093 241.326 765.412 243.747 762.596 249.111C761.012 252.127 760.459 255.847 761.632 259.101C762.819 262.396 765.576 264.467 768.732 265.752C770.05 266.288 771.368 266.574 772.768 266.797C778.306 265.107 782.692 263.073 785.477 257.6C787.175 254.264 787.671 250.033 786.496 246.447C785.611 243.742 783.76 241.856 781.209 240.644C779.395 239.782 777.568 239.377 775.561 239.489ZM671.764 246.128C667.357 247.108 663.763 249.015 661.18 252.842C659.103 255.918 658.09 259.894 658.949 263.556C659.717 266.83 661.842 269.523 664.769 271.152C666.682 272.217 668.79 272.609 670.946 272.833C675.913 271.191 679.797 269.14 682.295 264.242C684.008 260.883 684.566 256.812 683.208 253.226C682.138 250.402 679.889 248.268 677.106 247.145C675.374 246.446 673.608 246.276 671.764 246.128ZM721.857 243.49C717.029 245.293 713.092 247.648 710.835 252.554C709.376 255.724 709.119 259.263 710.419 262.529C711.666 265.664 714.336 268.008 717.434 269.249C719.125 269.927 720.846 270.116 722.646 270.279C727.402 268.655 730.791 266.358 733.041 261.705C734.715 258.241 735.103 253.927 733.748 250.292C732.76 247.641 731.04 245.698 728.445 244.538C726.363 243.607 724.125 243.17 721.857 243.49ZM624.777 686.332C620.693 689.844 617.369 693.815 616.856 699.408C616.442 703.906 618.154 708.284 621.028 711.7C624.168 715.431 628.729 718.021 633.652 718.264C638.095 718.483 642.298 716.757 645.463 713.66C646.77 712.381 647.947 710.776 648.858 709.189C651.833 702.826 650.517 696.795 649.038 690.264C649.163 695.473 649.274 699.617 645.535 703.769C643.456 706.077 640.636 707.593 637.506 707.741C634.809 707.868 631.008 706.948 629.031 705C624.519 700.552 627.408 688.733 624.777 686.332ZM829.19 620.886C822.754 625.987 801.684 643.269 799.274 650.542C799.408 651.546 799.563 652.437 799.886 653.398C810.114 643.627 821.044 633.38 829.821 622.291L829.787 621.339L829.19 620.886ZM827.88 640.506C822.591 644.736 804.166 659.549 802.999 665.499C803.215 666.362 803.407 667.239 803.662 668.09C810.273 664.021 825.668 648.402 827.771 641.347C827.896 640.927 827.879 640.861 827.88 640.506Z"/>
	<path fill="#F0EFDE" transform="scale(1.15039 1.15039)" d="M430.96 842.951C436.043 851.677 436.345 863.523 436.915 873.369L435.11 872.424C433.198 863.414 432.881 853.797 429.555 845.12L430.96 842.951Z"/>
	<path fill="#F0EFDE" transform="scale(1.15039 1.15039)" d="M417.822 876.754L419.047 876.547C421.415 883.804 426.877 898.226 425.661 905.505C424.758 906.916 423.536 907.366 421.948 907.704C419.133 908.303 416.088 908.279 413.22 908.4L411.636 907.911C413.017 906.785 421.111 907.132 423.74 906.115L423.523 905.689L420.458 905.256C421.824 904.978 422.701 904.757 423.908 904.006C423.009 894.926 419.189 885.891 417.822 876.754Z"/>
	<path fill="#E3E0D3" transform="scale(1.15039 1.15039)" d="M213.319 792.619C223.133 798.285 237.108 792.096 240.944 794.91C246.031 798.64 246.978 811.434 247.95 817.494C237.124 817.685 226.426 816.811 215.589 817.551C215.494 809.163 212.947 801.049 213.319 792.619ZM227.861 798.29C224.285 798.436 220.698 798.529 217.125 798.736C217.653 803.964 218.433 809.342 218.562 814.588C223.398 814.155 228.192 814.025 233.044 814.073Q238.746 814.25 244.443 814.541C243.382 808.989 242.355 803.258 240.328 797.968C236.177 797.988 231.997 797.904 227.861 798.29Z"/>
	<path fill="#E3E0D3" transform="scale(1.15039 1.15039)" d="M333.078 793.998C350.207 793.861 367.254 795.679 384.374 795.502C384.888 803.986 388.924 813.807 387.179 822.249C386.768 824.234 386.086 825.178 384.378 826.237C375.459 826.786 366.476 827.03 357.577 827.821C351.895 828.326 346.325 829.442 340.612 829.71C339.224 824.045 339.523 818.11 338.317 812.434C336.979 806.134 334.065 800.441 333.078 793.998ZM337.303 797.738C339.107 807.535 341.831 816.582 342.666 826.628Q361.533 823.732 380.606 822.975C381.344 822.766 382.599 822.651 383.014 821.978C385.346 818.198 381.835 804.185 380.838 799.319C366.328 799.245 351.809 798.177 337.303 797.738Z"/>
	<path fill="#E3E0D3" transform="scale(1.15039 1.15039)" d="M320.247 835.71C327.165 835.561 334.168 835.204 341.079 835.566C343.361 841.753 348.989 865.206 347.393 870.73C343.29 873.159 329.721 872.468 324.057 873.241L323.118 873.374C316.414 873.739 309.878 874.557 303.659 877.159C300.33 867.793 297.922 848.442 298.592 838.52C305.414 836.133 313.087 836.107 320.247 835.71ZM319.07 838.756C313.014 839.176 306.774 839.546 300.803 840.658C302.023 851.046 303.62 862.302 306.746 872.281C312.681 871.805 318.688 871.498 324.586 870.679C331.499 870.142 338.422 869.246 345.342 868.905C343.221 858.819 341.226 848.689 338.97 838.633C332.328 838.985 325.706 838.558 319.07 838.756Z"/>
	<path fill="#E3E0D3" transform="scale(1.15039 1.15039)" d="M345.407 886.712C345.898 886.648 346.229 886.585 346.749 886.624C348.144 886.729 348.904 887.027 349.913 887.998C351.496 892.149 355.922 916.669 356.133 921.338C356.245 923.831 356.126 926.241 355.113 928.544C350.232 932.192 325.135 931.159 317.591 931.097C316.248 930.887 313.854 930.543 312.882 929.509C309.286 925.687 307.165 897.472 306.627 891.068C318.93 887.836 332.737 887.683 345.407 886.712Z"/>
	<path fill="#E3E0D3" transform="scale(1.15039 1.15039)" d="M275.776 838.683C277.203 838.538 278.945 838.217 280.217 839.053C281.455 839.866 282.145 841.282 282.527 842.665C284.187 848.693 284.609 855.656 285.576 861.871C286.605 868.481 288.128 875.009 289.159 881.608C289.418 883.265 289.65 884.296 288.664 885.677C280.475 890.152 254.105 889.98 243.875 890.457C243.162 890.376 242.461 890.498 241.938 889.945C238.821 886.653 235.566 862.327 234.696 856.799C234.266 854.068 234.138 850.194 233.09 847.724C232.661 846.712 231.31 845.815 230.474 845.143C229.632 844.466 229.94 844.949 229.742 843.689C231.16 842.169 233.372 841.73 235.36 841.422C240.747 840.588 246.531 840.85 251.986 840.563C259.927 840.146 267.857 839.384 275.776 838.683ZM271.107 843.803C259.544 845.004 247.795 845.153 236.179 845.49C237.531 857.533 239.762 875.461 243.76 886.774L249.687 886.197C261.494 885.218 273.603 884.697 285.247 882.501C283.383 869.62 282.392 855.353 277.628 843.203L271.107 843.803Z"/>
	<path fill="#E3E0D3" transform="scale(1.15039 1.15039)" d="M394.155 863.899L392.371 855.29C391.771 852.309 390.277 847.02 392.038 844.368C397.583 842.522 424.934 841.57 430.96 842.951L429.555 845.12C432.881 853.797 433.198 863.414 435.11 872.424L436.915 873.369C436.157 874.75 435.764 875.208 434.24 875.726C429.628 877.294 423.852 876.205 419.047 876.547L417.822 876.754C419.189 885.891 423.009 894.926 423.908 904.006C422.701 904.757 421.824 904.978 420.458 905.256L423.523 905.689L423.74 906.115C421.111 907.132 413.017 906.785 411.636 907.911L413.22 908.4C406.104 908.636 398.544 909.589 391.555 910.961Q388.444 901.539 385.237 892.148C377.781 893.695 370.209 894.153 362.875 896.301C359.483 886.744 357.204 875.933 356.258 865.867C366.754 862.975 383.277 863.271 394.155 863.899ZM395.287 846.061C396.032 851.221 396.638 856.452 398.258 861.425C399.692 865.828 401.817 870.093 402.94 874.57C413.666 874.029 424.439 873.693 435.11 872.424C433.198 863.414 432.881 853.797 429.555 845.12C418.156 845.16 406.676 845.566 395.287 846.061ZM384.236 878.481C386.85 887.944 388.869 899.037 393.728 907.588C402.657 907.012 411.528 905.76 420.458 905.256C421.824 904.978 422.701 904.757 423.908 904.006C423.009 894.926 419.189 885.891 417.822 876.754C413.846 876.099 405.837 875.853 402.116 877.366L400.854 879.469L399.711 879.595C398.968 878.988 398.317 878.37 397.663 877.668C393.578 876.794 388.333 877.766 384.236 878.481ZM386.172 867.755L360.968 868.629C362.283 876.566 364.271 884.335 365.859 892.213C369.282 891.777 383.116 891.842 384.916 890.926C383.51 886.871 382.204 882.761 380.267 878.92C377.155 879.768 374.98 880.389 371.828 879.232L371.792 878.536C378.608 874.424 389.475 875.011 397.372 874.499L395.387 867.469C392.318 867.559 389.238 867.597 386.172 867.755Z"/>
	<path fill="#E3E0D3" transform="scale(1.15039 1.15039)" d="M777.346 560.524C777.993 560.541 778.641 560.561 779.285 560.625C780.827 560.779 782.553 561.442 783.358 562.874C783.774 563.613 783.875 564.382 783.697 565.191C783.211 567.403 781.835 568.243 780.059 569.408C778.631 569.346 776.739 568.804 775.588 567.949C774.669 567.265 774.132 566.264 774.163 565.108C774.221 562.986 775.862 561.758 777.346 560.524Z"/>
	<path fill="#E3E0D3" transform="scale(1.15039 1.15039)" d="M534.17 556.167C536.81 555.862 539.269 555.687 541.722 556.908C543.119 557.603 543.894 558.365 544.421 559.817L543.876 560.978C542.34 562.112 540.73 562.243 538.882 562.546C537.146 562.772 535.246 563.129 533.494 563.033C531.323 562.914 529.135 561.701 527.688 560.132C527.605 559.476 527.368 559.016 527.775 558.434C529.102 556.539 532.071 556.451 534.17 556.167Z"/>
	<path fill="#E3E0D3" transform="scale(1.15039 1.15039)" d="M587.352 456.583C591.394 456.463 595.844 456.021 599.849 456.649C601.849 456.963 602.806 457.406 604.03 459.028C604.023 460.696 603.678 461.008 602.804 462.378C599.68 463.393 595.425 463.917 592.145 463.714C590.4 463.606 588.202 463.142 587.177 461.566C586.115 459.935 586.779 458.228 587.352 456.583Z"/>
	<path fill="#E3E0D3" transform="scale(1.15039 1.15039)" d="M740.834 441.385C741.736 441.402 742.811 441.427 743.662 441.782C744.911 442.303 745.238 442.973 745.713 444.159C745.646 445.258 745.436 445.969 744.82 446.866C738.91 455.478 726.221 466.397 718.354 473.651C704.223 486.681 689.878 499.472 676.017 512.793C667.186 521.28 658.648 529.922 650.674 539.223C650.374 539.364 650.091 539.549 649.774 539.644C648.586 540 648.026 539.554 647.049 538.996C646.6 538.012 646.402 537.636 646.563 536.52C647.817 527.837 717.784 460.956 729.858 450.149C733.369 447.007 737.018 444.147 740.834 441.385Z"/>
	<path fill="#E3E0D3" transform="scale(1.15039 1.15039)" d="M533.812 499.737C533.972 499.725 534.133 499.7 534.294 499.7C536.109 499.699 537.061 500.409 538.222 501.644C538.572 502.89 538.588 502.925 538.112 504.124C536.81 505.345 535.859 505.787 534.096 506.106C530.19 506.813 525.9 506.407 521.936 506.368C513.648 506.285 504.96 506.029 496.719 506.833L495.978 506.909C499.611 523.382 498.927 540.866 503.8 557.039C505.403 557.691 507.463 558.31 508.855 559.336C509.812 560.041 509.762 560.352 509.926 561.451C508.859 563.271 507.868 562.884 506.596 564.144C505.441 565.29 505.35 568.052 503.871 569.631C503.031 569.81 502.815 570.06 502.023 569.576C499.969 568.32 499.617 566.114 499.077 563.947C481.397 565.051 463.787 565.913 446.123 567.367C442.289 567.652 438.214 568.303 434.388 568.16C432.337 568.084 429.353 567.749 428.039 565.888C427.213 564.72 427.253 564.379 427.452 563.061C428.718 561.629 430.086 561.406 431.903 561.107C439.218 559.902 447.325 560.385 454.773 560.078Q476.375 559.208 497.943 557.707C496.507 550.246 489.485 507.34 492.157 502.09C499.9 499.006 524.478 499.994 533.812 499.737Z"/>
	<path fill="#E3E0D3" transform="scale(1.15039 1.15039)" d="M724.915 493.512C725.811 493.734 726.646 494.031 727.514 494.339C728.327 495.414 728.635 495.723 728.59 497.145C728.437 502.027 717.715 512.247 714.376 515.856L720.975 521.613C723.388 520.484 725.807 519.328 728.297 518.38C731.54 517.146 736.177 515.465 739.473 516.951C740.35 517.823 740.87 518.531 741.142 519.738C742.947 527.741 716.859 540.51 711.237 545.455C706.963 549.214 703.854 554.244 700.665 558.903C707.424 553.582 719.236 544.147 727.475 542.089C730.887 541.237 734.432 541.339 737.903 540.87C741.043 540.445 745.189 539.312 748.291 539.699C749.873 539.897 751.063 540.659 752.007 541.946C752.988 543.285 753.288 545.113 752.997 546.722C752.359 550.256 749.387 553.305 746.585 555.322C743.713 557.389 739.506 559.312 735.875 558.561C734.559 558.288 733.391 557.566 732.731 556.364C731.238 553.649 732.331 550.003 733.335 547.345L733.589 546.688C726.448 548.706 719.053 552.352 712.943 556.541C708.842 559.352 700.892 569.174 696.742 569.9C695.347 570.144 695.102 569.954 694.035 569.19C692.859 566.449 693.688 563.883 694.415 561.128C701.089 543.517 718.278 534.95 732.012 523.635C725.559 526.266 716.279 533.803 709.239 532.177C708.551 531.58 708.262 531.548 708.103 530.519C707.624 527.424 710.69 523.154 712.355 520.751C700.413 527.204 688.934 537.344 679.001 546.557Q672.98 552.066 667.585 558.188C665.441 560.595 663.386 563.544 660.95 565.635C660.006 566.445 659.614 566.613 658.431 566.77L657.336 565.633C656.553 563.146 657.42 560.966 658.53 558.714C667.893 539.717 704.65 500.355 724.915 493.512ZM717.379 505.109C706.946 510.788 681.557 530.985 676.237 541.276L676.372 542.252C682.792 536.333 716.598 510.383 717.379 505.109Z"/>
	<path fill="#E3E0D3" transform="scale(1.15039 1.15039)" d="M857.984 463.185C860.676 463.09 863.044 463.518 865.496 464.673C870.244 466.911 873.972 470.899 878.352 473.741C884.216 477.545 890.921 480.179 896.501 484.434C899.291 486.561 902.314 489.482 902.591 493.215C902.81 496.175 899.224 500.025 897.246 502.105C893.181 506.382 888.533 510.18 884.249 514.251C877.515 520.65 871.192 528.041 863.364 533.125C860.818 534.778 857.7 536.285 854.594 536.255C852.964 536.239 851.531 535.792 850.423 534.525C845.403 528.788 847.704 515.799 848.027 508.786C847.793 508.776 847.558 508.77 847.323 508.757C839.746 508.326 832.185 509.332 824.6 509.398Q809.772 509.473 794.96 508.791C790.763 508.611 786.057 508.822 781.979 507.845C780.045 507.381 778.562 506.763 777.144 505.363C776.984 504.635 776.718 504.273 777.109 503.574C778.029 501.926 780.108 501.045 781.785 500.389C789.211 497.484 797.636 495.924 805.388 494.007Q826.452 488.776 847.594 483.868C847.717 479.354 847.64 474.257 849.563 470.082C851.312 466.284 854.16 464.528 857.984 463.185Z"/>
</svg>
